<svg width="4" height="16" viewBox="0 0 4 16" fill="none" xmlns="http://www.w3.org/2000/svg">
<path d="M1.99992 0.5C1.08325 0.5 0.333252 1.25 0.333252 2.16667C0.333252 3.08333 1.08325 3.83333 1.99992 3.83333C2.91659 3.83333 3.66659 3.08333 3.66659 2.16667C3.66659 1.25 2.91659 0.5 1.99992 0.5ZM1.99992 12.1667C1.08325 12.1667 0.333252 12.9167 0.333252 13.8333C0.333252 14.75 1.08325 15.5 1.99992 15.5C2.91659 15.5 3.66659 14.75 3.66659 13.8333C3.66659 12.9167 2.91659 12.1667 1.99992 12.1667ZM1.99992 6.33333C1.08325 6.33333 0.333252 7.08333 0.333252 8C0.333252 8.91667 1.08325 9.66667 1.99992 9.66667C2.91659 9.66667 3.66659 8.91667 3.66659 8C3.66659 7.08333 2.91659 6.33333 1.99992 6.33333Z" fill="black"/>
</svg>
