<svg width="24" height="24" viewBox="0 0 24 24" fill="none" xmlns="http://www.w3.org/2000/svg">
<path d="M3.78947 19.2H6.31579V21.6H21.4737V2.4H6.31579V4.8H3.78947V1.2C3.78947 0.88174 3.92256 0.576515 4.15944 0.351472C4.39633 0.126428 4.71762 0 5.05263 0H22.7368C23.0719 0 23.3931 0.126428 23.63 0.351472C23.8669 0.576515 24 0.88174 24 1.2V22.8C24 23.1183 23.8669 23.4235 23.63 23.6485C23.3931 23.8736 23.0719 24 22.7368 24H5.05263C4.71762 24 4.39633 23.8736 4.15944 23.6485C3.92256 23.4235 3.78947 23.1183 3.78947 22.8V19.2ZM6.31579 10.8H15.1579V13.2H6.31579V16.8L0 12L6.31579 7.2V10.8Z" fill="white"/>
</svg>
