<svg width="24" height="24" viewBox="0 0 24 24" fill="none" xmlns="http://www.w3.org/2000/svg">
<path d="M20.206 0C20.8621 0 21.3946 0.5376 21.3946 1.2V5.7084L19.0174 8.1084V2.4H2.37718V21.6H19.0174V18.2904L21.3946 15.8904V22.8C21.3946 23.4624 20.8621 24 20.206 24H1.18859C0.532488 24 0 23.4624 0 22.8V1.2C0 0.5376 0.532488 0 1.18859 0H20.206ZM22.3193 8.1696L24 9.8664L14.7552 19.2L13.0721 19.1976L13.0745 17.5032L22.3193 8.1696ZM11.8859 12V14.4H5.94295V12H11.8859ZM15.4517 7.2V9.6H5.94295V7.2H15.4517Z" fill="#646477"/>
</svg>
